<svg width="69" height="30" viewBox="0 0 69 30" fill="none" xmlns="http://www.w3.org/2000/svg">
<g id="Frame" clip-path="url(#clip0_224_230)">
<path id="text-0" d="M27.7227 1.12546L26.2152 9.8801C25.6943 9.76688 25.1771 9.69046 24.6636 9.65083C24.1427 9.60554 23.6219 9.5829 23.101 9.5829C21.7732 9.5829 20.5113 9.71876 19.3156 9.99049C18.1124 10.2622 17.0487 10.6726 16.1244 11.2217C15.2073 11.7765 14.4737 12.4671 13.9235 13.2936C13.3806 14.1258 13.1092 15.1023 13.1092 16.2232C13.1092 16.9421 13.2559 17.562 13.5494 18.0828C13.8428 18.6093 14.261 19.0452 14.8039 19.3905C15.3394 19.7358 15.974 19.9934 16.7076 20.1632C17.4412 20.3274 18.2482 20.4094 19.1285 20.4094C19.7887 20.4094 20.4783 20.3528 21.1973 20.2396C21.9089 20.1321 22.6168 19.9877 23.3211 19.8065C24.018 19.6254 24.6966 19.4188 25.3568 19.1867C26.0171 18.9489 26.626 18.7055 27.1835 18.4564L26.1051 28.2045C25.4082 28.4819 24.6526 28.7282 23.8383 28.9433C23.024 29.1528 22.1876 29.3367 21.3293 29.4952C20.471 29.6594 19.6127 29.7811 18.7544 29.8604C17.8887 29.9453 17.0634 29.9877 16.2784 29.9877C14.0042 29.9877 11.8804 29.6622 9.907 29.0112C7.94093 28.3602 6.23161 27.4686 4.77906 26.3364C3.32651 25.2042 2.18575 23.8683 1.35677 22.3285C0.520453 20.7887 0.102295 19.1272 0.102295 17.344C0.102295 14.9778 0.542461 12.7474 1.42279 10.6528C2.29579 8.55827 3.58328 6.72413 5.28526 5.15039C6.98723 3.57665 9.09636 2.33407 11.6126 1.42266C14.1289 0.505593 17.0267 0.0470581 20.3059 0.0470581C21.5457 0.0470581 22.8149 0.123478 24.1134 0.276323C25.4119 0.429168 26.615 0.712215 27.7227 1.12546ZM53.0323 18.4564L51.8989 27.6611L29.2743 29.0367C29.3844 24.2079 29.5054 19.4103 29.6375 14.6438C29.7769 9.87727 29.9419 5.08246 30.1327 0.259343H44.1079C43.6971 3.28794 43.3046 6.31088 42.9305 9.32816C42.549 12.3454 42.2776 15.3882 42.1162 18.4564C42.9598 18.4847 43.7925 18.4989 44.6141 18.4989C45.4431 18.4989 46.2758 18.4989 47.1121 18.4989C48.1171 18.4989 49.1038 18.4932 50.0722 18.4819C51.0406 18.4649 52.0273 18.4564 53.0323 18.4564ZM54.5069 1.66892L68.7903 1.08301L65.8412 29.3254L54.5069 29.7755V1.66892Z" fill="#4975CC"/>
</g>
<defs>
<clipPath id="clip0_224_230">
<rect width="68.7073" height="29.9407" fill="white" transform="translate(0.0924072 0.0470581)"/>
</clipPath>
</defs>
</svg>
