<svg xmlns="http://www.w3.org/2000/svg" version="1.1" xmlns:xlink="http://www.w3.org/1999/xlink" xmlns:svgjs="http://svgjs.dev/svgjs" width="1000" height="1000" viewBox="0 0 1000 1000"><rect width="1000" height="1000" fill="#ffffff"></rect><g transform="matrix(0.7,0,0,0.7,149.57575757575756,282.1265587044535)"><svg viewBox="0 0 396 247" data-background-color="#ffffff" preserveAspectRatio="xMidYMid meet" height="623" width="1000" xmlns="http://www.w3.org/2000/svg" xmlns:xlink="http://www.w3.org/1999/xlink"><g id="tight-bounds" transform="matrix(1,0,0,1,0.2400000000000091,-0.09999999999999432)"><svg viewBox="0 0 395.52 247.2" height="247.2" width="395.52"><g><svg></svg></g><g><svg viewBox="0 0 395.52 247.2" height="247.2" width="395.52"><g transform="matrix(1,0,0,1,44.55249307479224,37.08)"><svg viewBox="0 0 306.4150138504155 173.04" height="173.04" width="306.4150138504155"><g><svg viewBox="0 0 306.4150138504155 173.04" height="173.04" width="306.4150138504155"><g><svg viewBox="0 0 306.4150138504155 173.04" height="173.04" width="306.4150138504155"><g id="textblocktransform"><svg viewBox="0 0 306.4150138504155 173.04" height="173.04" width="306.4150138504155" id="textblock"><g><svg viewBox="0 0 306.4150138504155 173.04" height="173.04" width="306.4150138504155"><g transform="matrix(1,0,0,1,0,0)"><svg width="306.4150138504155" viewBox="0.3400000035762787 -35.599998474121094 62.41999816894531 35.2599983215332" height="173.04" data-palette-color="#202046"><path d="M25.44-34.33L25.44-34.33 24.07-24.02Q23.36-24.22 22.66-24.29 21.95-24.37 21.24-24.37L21.24-24.37Q19.43-24.37 17.8-23.89 16.16-23.41 14.9-22.44 13.65-21.46 12.9-20 12.16-18.53 12.16-16.55L12.16-16.55Q12.16-15.28 12.56-14.36 12.96-13.43 13.7-12.82 14.43-12.21 15.43-11.91 16.43-11.62 17.63-11.62L17.63-11.62Q18.53-11.62 19.51-11.82 20.48-12.01 21.44-12.33 22.39-12.65 23.29-13.06 24.19-13.48 24.95-13.92L24.95-13.92 23.97-2.44Q23.02-1.95 21.91-1.57 20.8-1.2 19.63-0.92 18.46-0.63 17.29-0.49 16.11-0.34 15.04-0.34L15.04-0.34Q11.94-0.34 9.25-1.49 6.57-2.64 4.59-4.64 2.61-6.64 1.48-9.36 0.34-12.08 0.34-15.23L0.34-15.23Q0.34-19.41 1.54-23.11 2.73-26.81 5.05-29.59 7.37-32.37 10.8-33.98 14.23-35.6 18.7-35.6L18.7-35.6Q20.39-35.6 22.16-35.33 23.93-35.06 25.44-34.33ZM48.44-13.92L48.44-13.92 47.41-3.08 26.85-1.46Q27-9.99 27.18-18.41 27.37-26.83 27.63-35.35L27.63-35.35 40.33-35.35Q39.77-30 39.26-24.67 38.74-19.34 38.52-13.92L38.52-13.92Q39.67-13.87 40.79-13.87 41.92-13.87 43.06-13.87L43.06-13.87Q44.43-13.87 45.75-13.89 47.07-13.92 48.44-13.92ZM49.78-33.69L62.76-34.38 60.08-1.12 49.78-0.59 49.78-33.69Z" opacity="1" transform="matrix(1,0,0,1,0,0)" fill="#202046" class="wordmark-text-0" data-fill-palette-color="primary" id="text-0"></path></svg></g></svg></g></svg></g></svg></g><g></g></svg></g></svg></g><g></g></svg></g><defs></defs></svg><rect width="395.52" height="247.2" fill="none" stroke="none" visibility="hidden"></rect></g></svg></g></svg>